<mxfile host="app.diagrams.net" modified="2024-04-27T23:18:58.658Z" agent="Mozilla/5.0 (Windows NT 10.0; Win64; x64) AppleWebKit/537.36 (KHTML, like Gecko) Chrome/124.0.0.0 Safari/537.36" version="24.2.3" etag="5XfKj7cvgCxYD3X9vuS7" type="github">
  <diagram name="Page-1" id="HsT3oPrplWEVX9DgcaGF">
    <mxGraphModel>
      <root>
        <mxCell id="0" />
        <mxCell id="1" parent="0" />
      </root>
    </mxGraphModel>
  </diagram>
</mxfile>
